UbuntuSansMono-Regular.ufo
<glyph name="boxLightHorizontal" format="2">
  <advance width="560"/>
  <unicode hex="2500"/>
  <outline>
    <contour>
      <point x="-5" y="271" type="line"/>
      <point x="565" y="271" type="line"/>
      <point x="565" y="349" type="line"/>
      <point x="-5" y="349" type="line"/>
    </contour>
  </outline>
</glyph>
<glyph name="boxLightVertical" format="2">
  <advance width="560"/>
  <unicode hex="2502"/>
  <outline>
    <contour>
      <point x="241" y="-300" type="line"/>
      <point x="319" y="-300" type="line"/>
      <point x="319" y="920" type="line"/>
      <point x="241" y="920" type="line"/>
    </contour>
  </outline>
</glyph>
<glyph name="boxLightTripleDashVertical" format="2">
  <advance width="560"/>
  <unicode hex="2506"/>
  <outline>
    <contour>
      <point x="241" y="532" type="line"/>
      <point x="319" y="532" type="line"/>
      <point x="319" y="754" type="line"/>
      <point x="241" y="754" type="line"/>
    </contour>
    <contour>
      <point x="241" y="-134" type="line"/>
      <point x="319" y="-134" type="line"/>
      <point x="319" y="88" type="line"/>
      <point x="241" y="88" type="line"/>
    </contour>
    <contour>
      <point x="241" y="199" type="line"/>
      <point x="319" y="199" type="line"/>
      <point x="319" y="421" type="line"/>
      <point x="241" y="421" type="line"/>
    </contour>
  </outline>
</glyph>
<glyph name="boxHeavyQuadrupleDashHorizontal" format="2">
  <advance width="560"/>
  <unicode hex="2509"/>
  <outline>
    <contour>
      <point x="438" y="232" type="line"/>
      <point x="543" y="232" type="line"/>
      <point x="543" y="388" type="line"/>
      <point x="438" y="388" type="line"/>
    </contour>
    <contour>
      <point x="18" y="232" type="line"/>
      <point x="123" y="232" type="line"/>
      <point x="123" y="388" type="line"/>
      <point x="18" y="388" type="line"/>
    </contour>
    <contour>
      <point x="158" y="232" type="line"/>
      <point x="263" y="232" type="line"/>
      <point x="263" y="388" type="line"/>
      <point x="158" y="388" type="line"/>
    </contour>
    <contour>
      <point x="298" y="232" type="line"/>
      <point x="403" y="232" type="line"/>
      <point x="403" y="388" type="line"/>
      <point x="298" y="388" type="line"/>
    </contour>
  </outline>
</glyph>
<glyph name="boxLightQuadrupleDashVertical" format="2">
  <advance width="560"/>
  <unicode hex="250A"/>
  <outline>
    <contour>
      <point x="241" y="591" type="line"/>
      <point x="319" y="591" type="line"/>
      <point x="319" y="779" type="line"/>
      <point x="241" y="779" type="line"/>
    </contour>
    <contour>
      <point x="241" y="-159" type="line"/>
      <point x="319" y="-159" type="line"/>
      <point x="319" y="29" type="line"/>
      <point x="241" y="29" type="line"/>
    </contour>
    <contour>
      <point x="241" y="91" type="line"/>
      <point x="319" y="91" type="line"/>
      <point x="319" y="279" type="line"/>
      <point x="241" y="279" type="line"/>
    </contour>
    <contour>
      <point x="241" y="341" type="line"/>
      <point x="319" y="341" type="line"/>
      <point x="319" y="529" type="line"/>
      <point x="241" y="529" type="line"/>
    </contour>
  </outline>
</glyph>
<glyph name="boxDownHeavyAndRightLight" format="2">
  <advance width="560"/>
  <unicode hex="250E"/>
  <outline>
    <contour>
      <point x="202" y="-300" type="line"/>
      <point x="358" y="-300" type="line"/>
      <point x="358" y="271" type="line"/>
      <point x="565" y="271" type="line"/>
      <point x="565" y="349" type="line"/>
      <point x="202" y="349" type="line"/>
    </contour>
  </outline>
</glyph>
<glyph name="boxHeavyDownAndRight" format="2">
  <advance width="560"/>
  <unicode hex="250F"/>
  <outline>
    <contour>
      <point x="202" y="-300" type="line"/>
      <point x="358" y="-300" type="line"/>
      <point x="358" y="232" type="line"/>
      <point x="565" y="232" type="line"/>
      <point x="565" y="388" type="line"/>
      <point x="202" y="388" type="line"/>
    </contour>
  </outline>
</glyph>
<glyph name="boxHeavyDownAndLeft" format="2">
  <advance width="560"/>
  <unicode hex="2513"/>
  <outline>
    <contour>
      <point x="202" y="-300" type="line"/>
      <point x="358" y="-300" type="line"/>
      <point x="358" y="388" type="line"/>
      <point x="-5" y="388" type="line"/>
      <point x="-5" y="232" type="line"/>
      <point x="202" y="232" type="line"/>
    </contour>
  </outline>
</glyph>
<glyph name="boxUpLightAndRightHeavy" format="2">
  <advance width="560"/>
  <unicode hex="2515"/>
  <outline>
    <contour>
      <point x="241" y="232" type="line"/>
      <point x="565" y="232" type="line"/>
      <point x="565" y="388" type="line"/>
      <point x="319" y="388" type="line"/>
      <point x="319" y="920" type="line"/>
      <point x="241" y="920" type="line"/>
    </contour>
  </outline>
</glyph>
<glyph name="boxVerticalLightAndRightHeavy" format="2">
  <advance width="560"/>
  <unicode hex="251D"/>
  <outline>
    <contour>
      <point x="241" y="-300" type="line"/>
      <point x="319" y="-300" type="line"/>
      <point x="319" y="232" type="line"/>
      <point x="565" y="232" type="line"/>
      <point x="565" y="388" type="line"/>
      <point x="319" y="388" type="line"/>
      <point x="319" y="920" type="line"/>
      <point x="241" y="920" type="line"/>
    </contour>
  </outline>
</glyph>
<glyph name="boxUpHeavyAndRightDownLight" format="2">
  <advance width="560"/>
  <unicode hex="251E"/>
  <outline>
    <contour>
      <point x="241" y="-300" type="line"/>
      <point x="319" y="-300" type="line"/>
      <point x="319" y="271" type="line"/>
      <point x="565" y="271" type="line"/>
      <point x="565" y="349" type="line"/>
      <point x="358" y="349" type="line"/>
      <point x="358" y="920" type="line"/>
      <point x="202" y="920" type="line"/>
      <point x="202" y="271" type="line"/>
      <point x="241" y="271" type="line"/>
    </contour>
  </outline>
</glyph>
<glyph name="boxLightDownAndHorizontal" format="2">
  <advance width="560"/>
  <unicode hex="252C"/>
  <outline>
    <contour>
      <point x="241" y="-300" type="line"/>
      <point x="319" y="-300" type="line"/>
      <point x="319" y="271" type="line"/>
      <point x="565" y="271" type="line"/>
      <point x="565" y="349" type="line"/>
      <point x="-5" y="349" type="line"/>
      <point x="-5" y="271" type="line"/>
      <point x="241" y="271" type="line"/>
    </contour>
  </outline>
</glyph>
<glyph name="boxHeavyDownAndHorizontal" format="2">
  <advance width="560"/>
  <unicode hex="2533"/>
  <outline>
    <contour>
      <point x="202" y="-300" type="line"/>
      <point x="358" y="-300" type="line"/>
      <point x="358" y="232" type="line"/>
      <point x="565" y="232" type="line"/>
      <point x="565" y="388" type="line"/>
      <point x="-5" y="388" type="line"/>
      <point x="-5" y="232" type="line"/>
      <point x="202" y="232" type="line"/>
    </contour>
  </outline>
</glyph>
<glyph name="boxLeftHeavyAndRightUpLight" format="2">
  <advance width="560"/>
  <unicode hex="2535"/>
  <outline>
    <contour>
      <point x="-5" y="232" type="line"/>
      <point x="319" y="232" type="line"/>
      <point x="319" y="271" type="line"/>
      <point x="565" y="271" type="line"/>
      <point x="565" y="349" type="line"/>
      <point x="319" y="349" type="line"/>
      <point x="319" y="920" type="line"/>
      <point x="241" y="920" type="line"/>
      <point x="241" y="388" type="line"/>
      <point x="-5" y="388" type="line"/>
    </contour>
  </outline>
</glyph>
<glyph name="boxLightDoubleDashHorizontal" format="2">
  <advance width="560"/>
  <unicode hex="254C"/>
  <outline>
    <contour>
      <point x="350" y="271" type="line"/>
      <point x="490" y="271" type="line"/>
      <point x="490" y="349" type="line"/>
      <point x="350" y="349" type="line"/>
    </contour>
    <contour>
      <point x="70" y="271" type="line"/>
      <point x="210" y="271" type="line"/>
      <point x="210" y="349" type="line"/>
      <point x="70" y="349" type="line"/>
    </contour>
  </outline>
</glyph>
<glyph name="boxDownSingleAndLeftDouble" format="2">
  <advance width="560"/>
  <unicode hex="2555"/>
  <outline>
    <contour>
      <point x="241" y="-300" type="line"/>
      <point x="319" y="-300" type="line"/>
      <point x="319" y="427" type="line"/>
      <point x="-5" y="427" type="line"/>
      <point x="-5" y="349" type="line"/>
      <point x="241" y="349" type="line"/>
      <point x="241" y="271" type="line"/>
      <point x="-5" y="271" type="line"/>
      <point x="-5" y="193" type="line"/>
      <point x="241" y="193" type="line"/>
    </contour>
  </outline>
</glyph>
<glyph name="boxUpDoubleAndRightSingle" format="2">
  <advance width="560"/>
  <unicode hex="2559"/>
  <outline>
    <contour>
      <point x="163" y="271" type="line"/>
      <point x="565" y="271" type="line"/>
      <point x="565" y="349" type="line"/>
      <point x="397" y="349" type="line"/>
      <point x="397" y="920" type="line"/>
      <point x="319" y="920" type="line"/>
      <point x="319" y="349" type="line"/>
      <point x="241" y="349" type="line"/>
      <point x="241" y="920" type="line"/>
      <point x="163" y="920" type="line"/>
    </contour>
  </outline>
</glyph>
<glyph name="boxDoubleUpAndRight" format="2">
  <advance width="560"/>
  <unicode hex="255A"/>
  <outline>
    <contour>
      <point x="163" y="193" type="line"/>
      <point x="565" y="193" type="line"/>
      <point x="565" y="271" type="line"/>
      <point x="241" y="271" type="line"/>
      <point x="241" y="920" type="line"/>
      <point x="163" y="920" type="line"/>
    </contour>
    <contour>
      <point x="319" y="349" type="line"/>
      <point x="565" y="349" type="line"/>
      <point x="565" y="427" type="line"/>
      <point x="397" y="427" type="line"/>
      <point x="397" y="920" type="line"/>
      <point x="319" y="920" type="line"/>
    </contour>
  </outline>
</glyph>
<glyph name="boxVerticalDoubleAndRightSingle" format="2">
  <advance width="560"/>
  <unicode hex="255F"/>
  <outline>
    <contour>
      <point x="319" y="-300" type="line"/>
      <point x="397" y="-300" type="line"/>
      <point x="397" y="271" type="line"/>
      <point x="565" y="271" type="line"/>
      <point x="565" y="349" type="line"/>
      <point x="397" y="349" type="line"/>
      <point x="397" y="920" type="line"/>
      <point x="319" y="920" type="line"/>
    </contour>
    <contour>
      <point x="163" y="-300" type="line"/>
      <point x="241" y="-300" type="line"/>
      <point x="241" y="920" type="line"/>
      <point x="163" y="920" type="line"/>
    </contour>
  </outline>
</glyph>
<glyph name="boxVerticalSingleAndLeftDouble" format="2">
  <advance width="560"/>
  <unicode hex="2561"/>
  <outline>
    <contour>
      <point x="241" y="-300" type="line"/>
      <point x="319" y="-300" type="line"/>
      <point x="319" y="920" type="line"/>
      <point x="241" y="920" type="line"/>
      <point x="241" y="427" type="line"/>
      <point x="-5" y="427" type="line"/>
      <point x="-5" y="349" type="line"/>
      <point x="241" y="349" type="line"/>
      <point x="241" y="271" type="line"/>
      <point x="-5" y="271" type="line"/>
      <point x="-5" y="193" type="line"/>
      <point x="241" y="193" type="line"/>
    </contour>
  </outline>
</glyph>
<glyph name="boxVerticalDoubleAndLeftSingle" format="2">
  <advance width="560"/>
  <unicode hex="2562"/>
  <outline>
    <contour>
      <point x="163" y="-300" type="line"/>
      <point x="241" y="-300" type="line"/>
      <point x="241" y="920" type="line"/>
      <point x="163" y="920" type="line"/>
      <point x="163" y="349" type="line"/>
      <point x="-5" y="349" type="line"/>
      <point x="-5" y="271" type="line"/>
      <point x="163" y="271" type="line"/>
    </contour>
    <contour>
      <point x="319" y="-300" type="line"/>
      <point x="397" y="-300" type="line"/>
      <point x="397" y="920" type="line"/>
      <point x="319" y="920" type="line"/>
    </contour>
  </outline>
</glyph>
<glyph name="boxDoubleDownAndHorizontal" format="2">
  <advance width="560"/>
  <unicode hex="2566"/>
  <outline>
    <contour>
      <point x="319" y="-300" type="line"/>
      <point x="397" y="-300" type="line"/>
      <point x="397" y="193" type="line"/>
      <point x="565" y="193" type="line"/>
      <point x="565" y="271" type="line"/>
      <point x="319" y="271" type="line"/>
    </contour>
    <contour>
      <point x="163" y="-300" type="line"/>
      <point x="241" y="-300" type="line"/>
      <point x="241" y="271" type="line"/>
      <point x="-5" y="271" type="line"/>
      <point x="-5" y="193" type="line"/>
      <point x="163" y="193" type="line"/>
    </contour>
    <contour>
      <point x="-5" y="349" type="line"/>
      <point x="565" y="349" type="line"/>
      <point x="565" y="427" type="line"/>
      <point x="-5" y="427" type="line"/>
    </contour>
  </outline>
</glyph>
<glyph name="boxVerticalSingleAndHorizontalDouble" format="2">
  <advance width="560"/>
  <unicode hex="256A"/>
  <outline>
    <contour>
      <point x="241" y="-300" type="line"/>
      <point x="319" y="-300" type="line"/>
      <point x="319" y="193" type="line"/>
      <point x="565" y="193" type="line"/>
      <point x="565" y="271" type="line"/>
      <point x="319" y="271" type="line"/>
      <point x="319" y="349" type="line"/>
      <point x="565" y="349" type="line"/>
      <point x="565" y="427" type="line"/>
      <point x="319" y="427" type="line"/>
      <point x="319" y="920" type="line"/>
      <point x="241" y="920" type="line"/>
      <point x="241" y="427" type="line"/>
      <point x="-5" y="427" type="line"/>
      <point x="-5" y="349" type="line"/>
      <point x="241" y="349" type="line"/>
      <point x="241" y="271" type="line"/>
      <point x="-5" y="271" type="line"/>
      <point x="-5" y="193" type="line"/>
      <point x="241" y="193" type="line"/>
    </contour>
  </outline>
</glyph>
<glyph name="boxVerticalDoubleAndHorizontalSingle" format="2">
  <advance width="560"/>
  <unicode hex="256B"/>
  <outline>
    <contour>
      <point x="163" y="-300" type="line"/>
      <point x="241" y="-300" type="line"/>
      <point x="241" y="271" type="line"/>
      <point x="319" y="271" type="line"/>
      <point x="319" y="-300" type="line"/>
      <point x="397" y="-300" type="line"/>
      <point x="397" y="271" type="line"/>
      <point x="565" y="271" type="line"/>
      <point x="565" y="349" type="line"/>
      <point x="397" y="349" type="line"/>
      <point x="397" y="920" type="line"/>
      <point x="319" y="920" type="line"/>
      <point x="319" y="349" type="line"/>
      <point x="241" y="349" type="line"/>
      <point x="241" y="920" type="line"/>
      <point x="163" y="920" type="line"/>
      <point x="163" y="349" type="line"/>
      <point x="-5" y="349" type="line"/>
      <point x="-5" y="271" type="line"/>
      <point x="163" y="271" type="line"/>
    </contour>
  </outline>
</glyph>
<glyph name="boxLightArcUpAndRight" format="2">
  <advance width="560"/>
  <unicode hex="2570"/>
  <outline>
    <contour>
      <point x="513" y="271" type="curve" smooth="yes"/>
      <point x="565" y="271" type="line"/>
      <point x="565" y="349" type="line"/>
      <point x="513" y="349" type="line" smooth="yes"/>
      <point x="406" y="349"/>
      <point x="319" y="436"/>
      <point x="319" y="543" type="curve" smooth="yes"/>
      <point x="319" y="920" type="line"/>
      <point x="241" y="920" type="line"/>
      <point x="241" y="543" type="line" smooth="yes"/>
      <point x="241" y="393"/>
      <point x="363" y="271"/>
    </contour>
  </outline>
</glyph>
<glyph name="boxLightDiagonalUpperRightToLowerLeft" format="2">
  <advance width="560"/>
  <unicode hex="2571"/>
  <outline>
    <contour>
      <point x="0" y="-190" type="line"/>
      <point x="45" y="-190" type="line"/>
      <point x="560" y="730" type="line"/>
      <point x="560" y="810" type="line"/>
      <point x="515" y="810" type="line"/>
      <point x="0" y="-110" type="line"/>
    </contour>
  </outline>
</glyph>
<glyph name="boxLightDiagonalCross" format="2">
  <advance width="560"/>
  <unicode hex="2573"/>
  <outline>
    <contour>
      <point x="0" y="-190" type="line"/>
      <point x="45" y="-190" type="line"/>
      <point x="280" y="230" type="line"/>
      <point x="515" y="-190" type="line"/>
      <point x="560" y="-190" type="line"/>
      <point x="560" y="-110" type="line"/>
      <point x="325" y="310" type="line"/>
      <point x="560" y="730" type="line"/>
      <point x="560" y="810" type="line"/>
      <point x="515" y="810" type="line"/>
      <point x="280" y="390" type="line"/>
      <point x="45" y="810" type="line"/>
      <point x="0" y="810" type="line"/>
      <point x="0" y="730" type="line"/>
      <point x="235" y="310" type="line"/>
      <point x="0" y="-110" type="line"/>
    </contour>
  </outline>
</glyph>
<glyph name="boxHeavyLeft" format="2">
  <advance width="560"/>
  <unicode hex="2578"/>
  <outline>
    <contour>
      <point x="-5" y="232" type="line"/>
      <point x="319" y="232" type="line"/>
      <point x="319" y="388" type="line"/>
      <point x="-5" y="388" type="line"/>
    </contour>
  </outline>
</glyph>
<glyph name="boxHeavyUp" format="2">
  <advance width="560"/>
  <unicode hex="2579"/>
  <outline>
    <contour>
      <point x="202" y="271" type="line"/>
      <point x="358" y="271" type="line"/>
      <point x="358" y="920" type="line"/>
      <point x="202" y="920" type="line"/>
    </contour>
  </outline>
</glyph>
<glyph name="upperHalfBlock" format="2">
  <advance width="560"/>
  <unicode hex="2580"/>
  <outline>
    <contour>
      <point x="0" y="310" type="line"/>
      <point x="560" y="310" type="line"/>
      <point x="560" y="910" type="line"/>
      <point x="0" y="910" type="line"/>
    </contour>
  </outline>
</glyph>
<glyph name="leftBlock" format="2">
  <advance width="560"/>
  <unicode hex="258C"/>
  <outline>
    <contour>
      <point x="0" y="-290" type="line"/>
      <point x="280" y="-290" type="line"/>
      <point x="280" y="910" type="line"/>
      <point x="0" y="910" type="line"/>
    </contour>
  </outline>
</glyph>
<glyph name="upperLeftAndUpperRightAndLowerRightBlock" format="2">
  <advance width="560"/>
  <unicode hex="259C"/>
  <outline>
    <contour>
      <point x="280" y="-290" type="line"/>
      <point x="560" y="-290" type="line"/>
      <point x="560" y="910" type="line"/>
      <point x="0" y="910" type="line"/>
      <point x="0" y="310" type="line"/>
      <point x="280" y="310" type="line"/>
    </contour>
  </outline>
</glyph>
<glyph name="ballotX" format="2">
  <advance width="560"/>
  <unicode hex="2717"/>
  <outline>
    <contour>
      <point x="466" y="16" type="line"/>
      <point x="522" y="72" type="line"/>
      <point x="93" y="501" type="line"/>
      <point x="37" y="445" type="line"/>
    </contour>
    <contour>
      <point x="93" y="16" type="line"/>
      <point x="522" y="445" type="line"/>
      <point x="466" y="501" type="line"/>
      <point x="37" y="72" type="line"/>
    </contour>
  </outline>
</glyph>
<glyph name="dots5-braille" format="2">
  <advance width="560"/>
  <unicode hex="2810"/>
  <outline>
    <contour>
      <point x="395" y="319" type="curve" smooth="yes"/>
      <point x="425" y="319"/>
      <point x="450" y="344"/>
      <point x="450" y="375" type="curve" smooth="yes"/>
      <point x="450" y="405"/>
      <point x="425" y="429"/>
      <point x="395" y="429" type="curve" smooth="yes"/>
      <point x="364" y="429"/>
      <point x="340" y="405"/>
      <point x="340" y="375" type="curve" smooth="yes"/>
      <point x="340" y="344"/>
      <point x="364" y="319"/>
    </contour>
  </outline>
</glyph>
<glyph name="squareMedium" format="2">
  <advance width="560"/>
  <outline>
    <contour>
      <point x="-36" y="36" type="line"/>
      <point x="-36" y="-36" type="line"/>
      <point x="36" y="-36" type="line"/>
      <point x="36" y="36" type="line"/>
    </contour>
  </outline>
</glyph>
